<svg viewBox="0 0 106 50" fill="none" xmlns="http://www.w3.org/2000/svg">
    <g>
        <path d="M50.0495 38.2395C46.7979 38.2395 44.1485 40.861 44.1485 44.1318C44.1485 47.4026 46.7738 50.0241 50.0495 50.0241C53.301 50.0241 55.9504 47.4026 55.9504 44.1318C55.9504 40.861 53.3251 38.2395 50.0495 38.2395ZM50.0495 47.0659C48.4116 47.0659 47.111 45.7432 47.111 44.1318C47.111 42.4964 48.4357 41.1977 50.0495 41.1977C51.6873 41.1977 52.9879 42.5205 52.9879 44.1318C53.012 45.7432 51.6873 47.0659 50.0495 47.0659ZM32.3948 38.2395C31.311 38.2395 30.3235 38.5281 29.4564 39.0332V27.9461C29.4564 27.1284 28.8061 26.4791 27.9872 26.4791C27.1683 26.4791 26.518 27.1284 26.518 27.9461V48.533C26.518 49.3507 27.1683 50 27.9872 50C28.8061 50 29.4564 49.3507 29.4564 48.533V44.1318C29.4564 42.4964 30.7811 41.1977 32.3948 41.1977C34.0326 41.1977 35.3333 42.5205 35.3333 44.1318V48.533C35.3333 49.3507 35.9836 50 36.8025 50C37.6214 50 38.2717 49.3507 38.2717 48.533V44.1318C38.2717 40.861 35.6464 38.2395 32.3948 38.2395ZM19.1478 26.4791C18.3289 26.4791 17.6786 27.1284 17.6786 27.9461V44.1077C17.6786 46.0558 15.8 47.5469 13.7768 46.8976C12.5725 46.5128 11.8018 45.3584 11.8018 44.1077V27.9461C11.8018 27.1284 11.1515 26.4791 10.3326 26.4791C9.51367 26.4791 8.86336 27.1284 8.86336 27.9461V44.1077C8.86336 45.7432 7.53866 47.0419 5.92494 47.0419C4.28713 47.0419 2.98652 45.7191 2.98652 44.1077V27.9461C2.98652 27.1284 2.33621 26.4791 1.51731 26.4791C0.698402 26.4791 0.0480957 27.1284 0.0480957 27.9461V43.9635C0.0480957 47.1621 2.55298 49.9038 5.75634 50C7.58684 50.0481 9.24873 49.2785 10.3567 48.0039C11.4646 49.2785 13.1265 50.0481 14.957 50C18.1603 49.9038 20.6652 47.1621 20.6652 43.9635V27.9461C20.6171 27.1284 19.9427 26.4791 19.1478 26.4791ZM66.5961 29.4132C67.8727 29.4132 68.9565 30.2068 69.366 31.3372C69.5827 31.9384 70.1367 32.3473 70.7629 32.3473C71.7745 32.3473 72.4971 31.3372 72.1599 30.3752C71.3169 28.0183 69.0047 26.3588 66.3312 26.4791C63.1519 26.6234 60.7193 29.341 60.7193 32.5156V43.9394C60.7193 47.114 63.1519 49.8317 66.3312 49.976C69.0047 50.0962 71.3169 48.4368 72.1599 46.0799C72.4971 45.1179 71.7986 44.1077 70.7629 44.1077C70.1126 44.1077 69.5827 44.5166 69.366 45.1179C68.9565 46.2482 67.8727 47.0419 66.5961 47.0419C64.9583 47.0419 63.6577 45.7191 63.6577 44.1077V32.3473C63.6336 30.7359 64.9583 29.4132 66.5961 29.4132ZM99.834 26.4791C96.6548 26.6234 94.2221 29.341 94.2221 32.5156V48.533C94.2221 49.3507 94.8724 50 95.6913 50C96.5102 50 97.1606 49.3507 97.1606 48.533V38.2395H103.061V48.533C103.061 49.3507 103.712 50 104.531 50C105.35 50 106 49.3507 106 48.533V32.3713C106 29.0043 103.23 26.3107 99.834 26.4791ZM103.061 35.3054H97.1606V32.3713C97.1606 30.7359 98.4853 29.4372 100.099 29.4372C101.737 29.4372 103.037 30.76 103.037 32.3713V35.3054H103.061ZM84.1303 26.4791H78.398V48.533C78.398 49.3507 79.0483 50 79.8672 50C80.6861 50 81.3364 49.3507 81.3364 48.533V38.2395H84.2989C87.6468 38.2395 90.3444 35.4497 90.1758 32.0827C90.0313 28.9081 87.3096 26.4791 84.1303 26.4791ZM84.2989 35.3054H81.3605V29.4132H84.2989C85.9367 29.4132 87.2374 30.7359 87.2374 32.3473C87.2614 33.9827 85.9367 35.3054 84.2989 35.3054ZM37.8863 26.4791C36.3208 26.4791 33.3582 28.0664 32.4671 33.9105C32.4671 33.9105 37.1397 30.2549 42.1735 29.2208C42.1976 29.2448 40.1744 26.4791 37.8863 26.4791ZM68.0413 21.8134C68.5471 20.9476 66.1626 19.3843 62.3089 17.2439L63.2483 15.6325C65.6327 11.52 64.2117 6.27707 60.0931 3.89612L55.3242 1.15441C51.2056 -1.22654 45.9549 0.192411 43.5705 4.30497L42.6311 5.91632C38.8256 3.65561 36.2967 2.35691 35.7909 3.24676C35.261 4.13662 37.6695 5.98847 41.6196 8.44157C40.7525 9.35547 40.0299 10.4377 39.5 11.6402C38.7534 11.9048 38.0067 12.5541 37.5009 13.444C37.1156 14.1174 36.947 14.8389 36.947 15.4882C35.5982 16.4983 31.4555 19.8413 32.7079 21.0678C33.6954 22.0539 34.8515 20.3463 37.8863 20.5868C36.2003 19.721 35.1647 20.178 34.8756 19.8653C34.3458 19.3362 36.682 17.6287 37.5009 17.0274C37.6214 17.1717 37.7659 17.292 37.9345 17.3882C39.0424 17.9894 40.6561 17.2198 41.5232 15.6325C41.7641 15.1756 41.9327 14.7186 42.0049 14.2617L46.4607 15.3439C46.4607 17.2679 45.0397 16.9553 45.0397 18.3983C45.0397 20.0337 47.7132 20.3463 47.7132 21.7412C47.7132 23.4488 45.2805 24.7715 46.7257 25.9259C46.1958 24.3627 49.3991 23.7855 49.3991 21.2602C49.3991 19.7691 48.4357 18.5907 48.4357 18.5907C50.1217 18.5907 49.7363 15.5123 52.4098 15.5123C53.7827 15.5123 54.9147 16.5705 54.9147 18.0135C54.9147 22.4627 47.7373 25.1082 47.7373 30.3752C47.7373 32.6359 49.0379 34.4637 50.0976 35.2333C47.9781 27.2006 58.9851 27.9221 61.4178 19.697C65.0547 21.6931 67.5596 22.6551 68.0413 21.8134ZM40.3189 15.0313C39.7409 16.0654 38.8256 16.6426 38.2717 16.354C37.7177 16.0414 37.7418 14.9591 38.3199 13.925C38.8979 12.8908 39.8131 12.3136 40.3671 12.6022C40.9211 12.9149 40.897 13.9971 40.3189 15.0313ZM41.9327 12.7706C41.8122 12.4339 41.6196 12.1212 41.3787 11.9048C42.1253 10.3896 42.9924 9.49977 42.9924 9.49977C44.6302 11.1352 45.7863 12.7706 46.244 14.1414L41.9327 12.7706ZM47.2796 5.29102C47.111 5.24292 46.9424 5.31507 46.8461 5.45937L46.0994 6.78212C46.0272 6.92642 46.0513 7.09477 46.1476 7.21502L47.2796 8.41752L45.3528 7.21502C44.9674 6.97452 44.8711 6.49352 45.0879 6.10872L45.9549 4.71382C46.1958 4.32902 46.6775 4.23282 47.0629 4.44927L49.4714 5.94037L47.2796 5.29102ZM34.1772 25.1323C34.1772 25.1323 38.9702 23.6412 40.7766 22.6311C39.7891 22.3425 33.6473 20.7552 34.1772 25.1323Z" fill="url(#paint0_linear_2_3)"/>
    </g>
    <defs>
        <linearGradient id="paint0_linear_2_3" x1="-7.51593e-05" y1="24.9989" x2="106.012" y2="24.9989" gradientUnits="userSpaceOnUse">
            <stop stop-color="#D80CFE"/>
            <stop offset="1" stop-color="#2544D3"/>
        </linearGradient>
    </defs>
</svg>
