<svg width="380" height="120" viewBox="0 0 380 120" fill="none" xmlns="http://www.w3.org/2000/svg">
<path fill-rule="evenodd" clip-rule="evenodd" d="M300.919 34.7981V29.7124L309.395 34.7981V78.8744H300.919V34.7981ZM171.907 73.4233L167.807 66.9838C165.073 69.4369 162.576 70.9088 158.951 70.9088C152.948 70.9088 148.788 65.8799 148.788 57.3554V56.7421C148.788 48.4014 153.008 43.3112 158.891 43.3112C162.22 43.3112 164.894 44.7831 167.569 47.1136L171.61 39.9382C168.46 36.9944 164.835 35.0319 158.713 35.0319C147.777 35.0319 139.873 43.8019 139.873 56.8647V57.4167C139.873 70.5408 147.777 79.1878 158.297 79.1878C164.538 79.1878 168.4 77.0416 171.907 73.4233ZM247.234 35.0319V43.6434H237.709V35.0319H247.234ZM247.234 46.9201V79.1878H237.709V46.9201H247.234ZM200.479 79.1878V58.1951C200.479 49.5213 196.189 44.5559 187.12 44.5559C182.34 44.5559 179.276 45.4358 176.09 46.8814L177.744 54.1096C180.379 53.0411 182.647 52.3497 185.71 52.3497C189.877 52.3497 192.022 54.4238 192.022 58.258V59.2008C190 58.3836 187.916 57.8808 185.097 57.8808C178.357 57.8808 173.638 61.212 173.638 68.6288V69.0687C173.638 75.5426 177.989 79.1878 183.443 79.1878C187.304 79.1878 190.13 77.6171 192.091 75.0398V79.1878H200.479ZM192.083 67.6231C192.083 70.703 189.693 72.7771 186.262 72.7771C183.811 72.7771 182.034 71.3943 182.034 68.6288V68.1888C182.034 65.1718 184.056 63.6633 187.243 63.6633C189.081 63.6633 190.858 64.1033 192.083 64.7318V67.6231ZM298.316 79.1878V58.1951C298.316 49.5213 293.888 44.5559 284.526 44.5559C279.592 44.5559 276.43 45.4358 273.141 46.8814L274.848 54.1096C277.568 53.0411 279.909 52.3497 283.072 52.3497C287.372 52.3497 289.587 54.4238 289.587 58.258V59.2008C287.499 58.3836 285.348 57.8808 282.439 57.8808C275.481 57.8808 270.61 61.212 270.61 68.6288V69.0687C270.61 75.5426 275.101 79.1878 280.731 79.1878C284.716 79.1878 287.634 77.6171 289.658 75.0398V79.1878H298.316ZM289.65 67.6231C289.65 70.703 287.183 72.7771 283.641 72.7771C281.11 72.7771 279.276 71.3943 279.276 68.6288V68.1888C279.276 65.1718 281.363 63.6633 284.653 63.6633C286.551 63.6633 288.385 64.1033 289.65 64.7318V67.6231ZM323.534 43.6434V35.0319H314.01V43.6434H323.534ZM323.534 79.1878V46.9201H314.01V79.1878H323.534ZM342.374 58.4963C347.006 60.8718 351.195 63.1848 351.195 68.8109C351.195 75.6874 345.991 79.1878 339.264 79.1878C335.266 79.1878 330.76 77.9381 326.953 75.1873L329.872 68.6234C333.172 70.8739 336.472 72.0616 339.264 72.0616C341.676 72.0616 342.945 71.0614 342.945 69.4361C342.945 67.8613 341.2 67.0799 338.499 65.8705C337.983 65.6396 337.432 65.3932 336.852 65.1227C332.473 63.1222 328.031 60.6217 328.031 54.683C328.031 48.2442 333.108 44.5559 339.645 44.5559C343.262 44.5559 347.07 45.6186 350.243 47.5565L347.641 54.3079C344.785 52.6825 341.93 51.6823 339.645 51.6823C337.487 51.6823 336.345 52.6201 336.345 54.0579C336.345 55.4685 338.029 56.3116 340.694 57.6453C341.218 57.9074 341.78 58.1883 342.374 58.4963ZM360.451 37.3413L356.213 34.7984V39.8838V46.7004H352.911V53.5018H356.213V70.3006C356.213 77.0026 359.675 78.8744 364.688 78.8744C367.318 78.8744 369.458 78.2706 371.109 77.3045V70.4214C370.008 71.0252 368.724 71.3271 367.379 71.3271C365.544 71.3271 364.688 70.4214 364.688 68.5497V53.5018H369.774V46.7004H364.688V39.8841L360.451 37.3413ZM268.877 70.5537V77.5842C267.149 78.571 264.91 79.1878 262.157 79.1878C256.909 79.1878 253.286 77.2762 253.286 70.4303V53.2711H249.829V46.3238H253.286V39.3609H253.293V35.0319L257.622 37.1964L261.952 39.3609H262.157V46.3238H267.573V53.2711H262.157V68.6418C262.157 70.5537 263.053 71.4788 264.973 71.4788C266.381 71.4788 267.725 71.1704 268.877 70.5537ZM234.808 62.3597V61.3869C234.808 50.2595 228.73 44.9695 222.094 44.9695C217.691 44.9695 214.693 47.3409 212.77 50.0772V44.9695H204.294V85.6556H204.293L212.769 90.7414V86.6538L212.77 74.0343C214.693 76.4057 217.629 78.7773 222.094 78.7773C228.792 78.7773 234.808 73.487 234.808 62.3597ZM226.332 62.2381C226.332 67.8322 223.148 71.2373 219.489 71.2373C215.891 71.2373 212.708 67.7714 212.708 62.2381V61.5085C212.708 55.9752 215.891 52.5093 219.489 52.5093C223.148 52.5093 226.332 55.9752 226.332 61.5085V62.2381Z" fill="#333333"/>
<path d="M60 120C93.1371 120 120 93.1371 120 60C120 26.8629 93.1371 0 60 0C26.8629 0 0 26.8629 0 60C0 93.1371 26.8629 120 60 120Z" fill="#80BD1C"/>
<path d="M76.8903 20.3972H43.1113L45.6297 40.9807H74.341L76.8903 20.3972Z" fill="white"/>
<path d="M73.7946 45.3816H46.1892L47.3438 54.6124C47.8795 54.9279 48.2332 55.2243 48.793 55.5005C52.2643 57.2132 56.0865 58.1074 59.9622 58.1134C63.838 58.1196 67.6629 57.2373 71.1397 55.5353C71.7168 55.2528 72.0775 54.949 72.6293 54.6247L73.7946 45.3816Z" fill="white"/>
<path d="M80.0347 52.9248C77.6782 55.9818 74.6434 58.4577 71.1667 60.1596C67.69 61.8615 63.8651 62.7437 59.9893 62.7377C56.1135 62.7317 52.2914 61.8375 48.8201 60.1247C45.3488 58.4119 42.3219 55.9267 39.9748 52.8623L35.9236 55.9254C38.7449 59.6088 42.3833 62.5961 46.5557 64.6549C50.7283 66.7137 55.3225 67.7885 59.9813 67.7958C64.64 67.8031 69.2377 66.7426 73.4167 64.6968C77.5957 62.6511 81.2438 59.6752 84.0765 56.0005L80.0347 52.9248Z" fill="white"/>
<path fill-rule="evenodd" clip-rule="evenodd" d="M57.7692 78.8707C57.124 82.4026 54.0129 85.0808 50.2724 85.0808C46.0641 85.0808 42.6526 81.691 42.6526 77.5101C42.6526 73.3287 46.0641 69.9392 50.2724 69.9392C53.7054 69.9392 56.6082 72.195 57.5611 75.2961C57.8651 75.1311 58.1838 74.9963 58.5123 74.8932C59.0225 74.7331 59.5566 74.6492 60.0971 74.6469C60.6375 74.6445 61.1723 74.7236 61.684 74.8792C62.0262 74.9833 62.358 75.1217 62.6741 75.2927C63.6281 72.1933 66.5301 69.9392 69.9618 69.9392C74.1701 69.9392 77.5819 73.3287 77.5819 77.5101C77.5819 81.691 74.1701 85.0808 69.9618 85.0808C66.2123 85.0808 63.0954 82.3896 62.4604 78.8454C62.2502 78.4067 61.9193 78.036 61.5059 77.7769C61.0882 77.514 60.6036 77.3756 60.1093 77.3779C59.615 77.3802 59.1316 77.5224 58.7162 77.7891C58.3037 78.0528 57.9754 78.4289 57.7692 78.8707ZM50.2724 81.1468C52.2938 81.1468 53.9325 79.518 53.9325 77.5101C53.9325 75.5014 52.2938 73.8733 50.2724 73.8733C48.2509 73.8733 46.6122 75.5014 46.6122 77.5101C46.6122 79.518 48.2509 81.1468 50.2724 81.1468ZM69.9618 81.1468C71.9833 81.1468 73.622 79.518 73.622 77.5101C73.622 75.5014 71.9833 73.8733 69.9618 73.8733C67.9404 73.8733 66.3017 75.5014 66.3017 77.5101C66.3017 79.518 67.9404 81.1468 69.9618 81.1468Z" fill="white"/>
<path d="M51.0779 97.07C54.1277 97.07 58.8157 95.0858 60.2383 93.0336C61.661 95.0858 66.3489 97.07 69.3987 97.07C72.5249 97.07 74.543 96.4379 76.6678 94.7977C78.0329 93.746 79.6801 91.3337 79.6801 88.9742C79.3629 89.1928 79.0724 89.4015 78.7973 89.5995C77.2701 90.6986 76.2357 91.4438 73.8058 91.4438C70.5475 91.4438 68.4679 89.5284 66.7356 87.9332C65.4991 86.7944 64.4397 85.8191 63.2549 85.8191C62.1431 85.8191 61.4824 86.4993 60.8691 87.1315C60.6587 87.3485 60.4539 87.5595 60.2383 87.7353C60.0228 87.5595 59.8179 87.3485 59.6075 87.1315C58.9942 86.4993 58.3335 85.8191 57.2217 85.8191C56.0369 85.8191 54.9775 86.7944 53.741 87.9332C52.0088 89.5284 49.9292 91.4438 46.6708 91.4438C44.2409 91.4438 43.2063 90.6986 41.6791 89.5995C41.4045 89.4023 41.114 89.1928 40.7966 88.9742C40.7966 91.3337 42.444 93.746 43.8085 94.7977C45.9336 96.4379 47.9518 97.07 51.0779 97.07Z" fill="white"/>
</svg>
