<svg width="138" height="120" viewBox="0 0 138 120" fill="none" xmlns="http://www.w3.org/2000/svg">
<g clip-path="url(#clip0_38646_6373)">
<path fill-rule="evenodd" clip-rule="evenodd" d="M25.2595 0.58937L0.105854 53.4224C0.0101368 53.6189 -0.0201952 53.8409 0.0192932 54.0558C0.0587817 54.2708 0.166019 54.4675 0.325323 54.6172L68.2592 119.712C68.4522 119.897 68.7092 120 68.9766 120C69.2439 120 69.5009 119.897 69.6939 119.712L137.628 54.6213C137.787 54.4716 137.894 54.2749 137.934 54.0599C137.973 53.8449 137.943 53.623 137.847 53.4264L112.694 0.593434C112.612 0.415998 112.482 0.265688 112.318 0.160467C112.153 0.0552457 111.962 -0.000435258 111.767 7.86495e-05H26.1943C25.9982 -0.00236046 25.8056 0.0519792 25.6398 0.156543C25.4739 0.261106 25.3418 0.411426 25.2595 0.58937Z" fill="#50AF95"/>
<path fill-rule="evenodd" clip-rule="evenodd" d="M77.7044 58.8479C77.2167 58.8845 74.6968 59.0349 69.076 59.0349C64.6053 59.0349 61.4311 58.9007 60.3175 58.8479C43.0404 58.0879 30.1445 55.0805 30.1445 51.4797C30.1445 47.879 43.0404 44.8756 60.3175 44.1034V55.8527C61.4474 55.934 64.6825 56.125 69.1532 56.125C74.518 56.125 77.2045 55.9015 77.6881 55.8567V44.1116C94.9286 44.8797 107.796 47.8871 107.796 51.4797C107.796 55.0724 94.9327 58.0798 77.6881 58.8438L77.7044 58.8479ZM77.7044 42.8964V32.3826H101.765V16.3499H36.2572V32.3826H60.3134V42.8923C40.7604 43.7905 26.0559 47.6636 26.0559 52.3047C26.0559 56.9459 40.7604 60.8149 60.3134 61.7171V95.4083H77.7003V61.705C97.2087 60.8068 111.889 56.9378 111.889 52.3007C111.889 47.6636 97.2209 43.7946 77.7003 42.8923L77.7044 42.8964Z" fill="white"/>
</g>
<defs>
<clipPath id="clip0_38646_6373">
<rect width="137.953" height="120" fill="white"/>
</clipPath>
</defs>
</svg>
